# xmcd CD database file
#
# Track frame offsets:
#	150
#	20445
#	34045
#	72525
#	115060
#	138280
#	191470
#	232137
#	247312
#	274140
#	309140
#
# Disc length: 4568 seconds
#
# Revision: 1
# Processed by: cddbd v1.5.1PL0 Copyright (c) Steve Scherf et al.
# Submitted via: CDex 1.51
#
DISCID=9b11d60b
DTITLE=カルロス・クライバー／ドレスデン国立管弦楽団 - 楽劇「トリスタンとイゾルデ」 DISC3
DYEAR=1982
DGENRE=Classical
TTITLE0=第3幕 前奏曲
TTITLE1=第3幕 第1場 シャルマイ(牧笛)の音
TTITLE2=第3幕 第1場 クルヴェナールよ! クルヴェナールよ!
TTITLE3=第3幕 第1場 どうしてここへですって?
TTITLE4=第3幕 第1場 まだ光は消えなかった
TTITLE5=第3幕 第1場 まだ船は見えません!
TTITLE6=第3幕 第1場 死んだのですか? 生きているのですか?
TTITLE7=第3幕 第2場 この太陽! この昼!
TTITLE8=第3幕 第2場 ああ! 私です、私です、あなたが愛するイゾルデです!
TTITLE9=第3幕 第3場 クルヴェナールよ! もう一隻船が
TTITLE10=第3幕 第3場 穏かに、静かに、彼が微笑み (イゾルデの愛の死)
EXTD=YEAR: 1982
EXTT0=
EXTT1=
EXTT2=
EXTT3=
EXTT4=
EXTT5=
EXTT6=
EXTT7=
EXTT8=
EXTT9=
EXTT10=
PLAYORDER=
